<?xml version="1.0" encoding="iso-8859-1"?>
<!-- Generator: Adobe Illustrator 17.0.2, SVG Export Plug-In . SVG Version: 6.00 Build 0)  -->
<!DOCTYPE svg PUBLIC "-//W3C//DTD SVG 1.1//EN" "http://www.w3.org/Graphics/SVG/1.1/DTD/svg11.dtd">
<svg version="1.1" id="Capa_1" xmlns="http://www.w3.org/2000/svg" xmlns:xlink="http://www.w3.org/1999/xlink" x="0px" y="0px"
	 width="64px" height="64px" viewBox="0 0 64 64" style="enable-background:new 0 0 64 64;" xml:space="preserve">
<g>
	<path d="M46.896,14.81c-0.656-0.505-1.598-0.38-2.103,0.277c-0.504,0.657-0.38,1.6,0.278,2.104
		c5.253,4.029,8.267,10.128,8.267,16.734c0,11.625-9.457,21.082-21.082,21.082S11.174,45.55,11.174,33.925
		c0-11.213,8.847-20.412,19.924-21.021v2.289c0,0.531,0.281,1.022,0.739,1.292c0.234,0.139,0.498,0.208,0.761,0.208
		c0.25,0,0.5-0.062,0.727-0.188l6.948-3.85c0.477-0.265,0.773-0.767,0.773-1.312c0-0.545-0.296-1.048-0.773-1.312l-6.948-3.851
		c-0.463-0.258-1.032-0.251-1.488,0.02c-0.458,0.27-0.739,0.761-0.739,1.292v2.384C18.364,10.486,8.174,21.058,8.174,33.925
		c0,13.279,10.803,24.082,24.082,24.082s24.082-10.803,24.082-24.082C56.337,26.378,52.896,19.411,46.896,14.81z M34.098,10.039
		l2.354,1.305l-2.354,1.304V10.039z"/>
	<path d="M22.213,34.852c-2.117,1.51-3.459,2.942-4.028,4.294c-0.45,0.922-0.739,1.918-0.866,2.988
		c-0.065,0.548,0.377,0.998,0.929,0.998h11.889c0.552,0,1-0.448,1-1v-1.511c0-0.552-0.448-1-1-1h-6.854
		c-0.552,0-0.837-0.283-0.579-0.59c0.155-0.185,0.325-0.356,0.51-0.515c0.368-0.317,1.052-0.83,2.051-1.538l1.598-1.133
		c1.345-0.951,2.312-1.814,2.901-2.588c0.896-1.166,1.345-2.499,1.345-4c0-1.958-0.635-3.532-1.904-4.72
		c-1.269-1.189-2.977-1.783-5.124-1.783c-2.717,0-4.606,1.012-5.67,3.035c-0.448,0.85-0.738,1.911-0.869,3.185
		c-0.057,0.549,0.379,0.997,0.931,0.997h1.874c0.552,0,1.011-0.449,1.076-0.997c0.076-0.64,0.2-1.137,0.371-1.493
		c0.438-0.904,1.264-1.357,2.476-1.357c0.886,0,1.566,0.284,2.042,0.853c0.476,0.569,0.713,1.282,0.713,2.14
		c0,1.054-0.415,2.023-1.245,2.909C25.239,32.595,24.05,33.537,22.213,34.852z"/>
	<path d="M43.97,22.977h-2.476c-0.552,0-1.232,0.383-1.518,0.855L33.557,34.43c-0.286,0.472-0.518,1.303-0.518,1.855v1.483
		c0,0.552,0.448,1,1,1h6.028c0.552,0,1,0.448,1,1v2.364c0,0.552,0.448,1,1,1h1.902c0.552,0,1-0.448,1-1v-2.364c0-0.552,0.448-1,1-1
		h0.294c0.552,0,1-0.448,1-1v-1.119c0-0.552-0.448-1-1-1H45.97c-0.552,0-1-0.448-1-1V23.977
		C44.97,23.425,44.522,22.977,43.97,22.977z M41.067,34.649c0,0.552-0.448,1-1,1h-3.062c-0.552,0-0.776-0.387-0.499-0.865
		l4.059-7.004c0.277-0.478,0.501-0.417,0.501,0.135V34.649z"/>
</g>
</svg>
